/* XPM */
static char *_1f9e4b453244beaf8f62e7392d2d6b7[] = {
/* columns rows colors chars-per-pixel */
"64 64 187 2 ",
"   c #004B1B",
".  c #004C1D",
"X  c #004E1E",
"o  c #004E1F",
"O  c #004F20",
"+  c #005021",
"@  c #015021",
"#  c #015122",
"$  c #025122",
"%  c #025123",
"&  c #035123",
"*  c #025223",
"=  c #035223",
"-  c #035224",
";  c #045224",
":  c #045324",
">  c #045325",
",  c #055325",
"<  c #065426",
"1  c #075527",
"2  c #085528",
"3  c #085628",
"4  c #095628",
"5  c #095629",
"6  c #0A5629",
"7  c #0A572A",
"8  c #0B572A",
"9  c #0B572B",
"0  c #0C582B",
"q  c #0C582C",
"w  c #0D592C",
"e  c #0E582C",
"r  c #0F582C",
"t  c #0E592D",
"y  c #0F592D",
"u  c #0F5A2D",
"i  c #0E5A2E",
"p  c #0F5A2E",
"a  c #0F5B2E",
"s  c #0F5B2F",
"d  c #105A2D",
"f  c #105A2E",
"g  c #105B2E",
"h  c #105A2F",
"j  c #105B2F",
"k  c #115B2F",
"l  c #125B2F",
"z  c #115B30",
"x  c #115C30",
"c  c #125C30",
"v  c #125C31",
"b  c #135C31",
"n  c #125D31",
"m  c #135D31",
"M  c #135D32",
"N  c #145C31",
"B  c #145D32",
"V  c #155E33",
"C  c #165E33",
"Z  c #165F34",
"A  c #175F35",
"S  c #176035",
"D  c #186036",
"F  c #1A6137",
"G  c #1B6238",
"H  c #1B6339",
"J  c #1D643A",
"K  c #1E643A",
"L  c #1E643B",
"P  c #20663C",
"I  c #21663C",
"U  c #21663D",
"Y  c #22673E",
"T  c #22673F",
"R  c #296C45",
"E  c #2A6C45",
"W  c #2D6F48",
"Q  c #2E6F49",
"!  c #2F704A",
"~  c #32724C",
"^  c #34744E",
"/  c #3A7753",
"(  c #3B7854",
")  c #407C59",
"_  c #427D5A",
"`  c #457F5C",
"'  c #47805E",
"]  c #47815F",
"[  c #4A8261",
"{  c #4B8261",
"}  c #4B8362",
"|  c #4C8363",
" . c #4C8463",
".. c #4D8464",
"X. c #528869",
"o. c #548A6B",
"O. c #598D6E",
"+. c #5A8D6F",
"@. c #609174",
"#. c #629376",
"$. c #649478",
"%. c #6A987D",
"&. c #6F9C82",
"*. c #709D83",
"=. c #719E84",
"-. c #729E84",
";. c #75A086",
":. c #76A087",
">. c #7FA78F",
",. c #80A890",
"<. c #87AC96",
"1. c #88AD97",
"2. c #89AE98",
"3. c #8AAF99",
"4. c #8BAF9A",
"5. c #8CB09B",
"6. c #91B49F",
"7. c #92B4A0",
"8. c #94B5A2",
"9. c #96B7A4",
"0. c #97B7A4",
"q. c #99B9A6",
"w. c #9AB9A7",
"e. c #9BBAA8",
"r. c #A0BEAC",
"t. c #A7C2B2",
"y. c #A8C3B3",
"u. c #ABC4B4",
"i. c #AAC4B5",
"p. c #ACC6B7",
"a. c #ADC7B8",
"s. c #AEC7B8",
"d. c #AFC8B9",
"f. c #B0C8BA",
"g. c #B0C9BA",
"h. c #B1C9BB",
"j. c #B3CABC",
"k. c #B5CCBE",
"l. c #B5CCBF",
"z. c #B7CDC0",
"x. c #B9CEC2",
"c. c #B9CFC2",
"v. c #BED2C6",
"b. c #C0D4C8",
"n. c #C3D5CA",
"m. c #C4D6CC",
"M. c #CBDBD2",
"N. c #CDDDD4",
"B. c #D1DFD7",
"V. c #D6E2DB",
"C. c #D6E3DC",
"Z. c #D8E4DD",
"A. c #D9E4DD",
"S. c #DDE7E1",
"D. c #DEE8E2",
"F. c #E2EBE5",
"G. c #E8EFEB",
"H. c #E9EFEC",
"J. c #E9F0EC",
"K. c #EBF1EE",
"L. c #ECF2EE",
"P. c #EDF2EF",
"I. c #EEF3F0",
"U. c #F0F4F2",
"Y. c #F5F8F6",
"T. c #F6F8F7",
"R. c #F6F9F7",
"E. c #F7F9F7",
"W. c #F7F9F8",
"Q. c #F8FAF8",
"!. c #F8FAF9",
"~. c #F9FAF9",
"^. c #F9FBFA",
"/. c #FAFBFA",
"(. c #FAFBFB",
"). c #FBFBFB",
"_. c #FBFCFB",
"`. c #FBFCFC",
"'. c gray99",
"]. c #FCFDFC",
"[. c #FCFDFD",
"{. c #FDFDFD",
"}. c #FDFEFD",
"|. c #FEFEFE",
" X c #FFFEFF",
".X c gray100",
"XX c None",
/* pixels */
"XXXXXXXXXXXXXXXXXXXXXXXXXXXXXXXXXXXXXXXXXXXXXXXXXXXXl m p p s p p s p p m l XXXXXXXXXXXXXXXXXXXXXXXXXXXXXXXXXXXXXXXXXXXXXXXXXXXX",
"XXXXXXXXXXXXXXXXXXXXXXXXXXXXXXXXXXXXXXXXXXXXm p l p p p p p p m m p m p p p p l l j XXXXXXXXXXXXXXXXXXXXXXXXXXXXXXXXXXXXXXXXXXXX",
"XXXXXXXXXXXXXXXXXXXXXXXXXXXXXXXXXXXXXXXXp p p p s s p l m p m s p m p s z s p p p p p p XXXXXXXXXXXXXXXXXXXXXXXXXXXXXXXXXXXXXXXX",
"XXXXXXXXXXXXXXXXXXXXXXXXXXXXXXXXXXp p p p m p p p p p p s p p p p s p p p p p p j s s p p p p XXXXXXXXXXXXXXXXXXXXXXXXXXXXXXXXXX",
"XXXXXXXXXXXXXXXXXXXXXXXXXXXXXXXXl p p s p p p m z p m p p s m p p p p p m s m p j p p l j j p p XXXXXXXXXXXXXXXXXXXXXXXXXXXXXXXX",
"XXXXXXXXXXXXXXXXXXXXXXXXXXXXp p s j p p m p p s p m s p p m s p s m s m p p s p j j j j p p s p p p XXXXXXXXXXXXXXXXXXXXXXXXXXXX",
"XXXXXXXXXXXXXXXXXXXXXXXXXXp p j p s s p p p p p p p p p p p p p m p p s p p m p j j j j j j s l l s p XXXXXXXXXXXXXXXXXXXXXXXXXX",
"XXXXXXXXXXXXXXXXXXXXXXp p s j p p p m p m s m p s m s m s m s m s p p m s m s p j j j j j j j j p p s p p XXXXXXXXXXXXXXXXXXXXXX",
"XXXXXXXXXXXXXXXXXXXXl p p l p p j j j j j j s z p z s z p p z s m s m p p p s p s p s m j j j j j p l j p l XXXXXXXXXXXXXXXXXXXX",
"XXXXXXXXXXXXXXXXXXl p j p s j s j j j j j j p m m p z s s m p p p p s p m p m p m p p p j j j j j s p p p p l XXXXXXXXXXXXXXXXXX",
"XXXXXXXXXXXXXXXXl p p p j j j j p p p p p p p s p p s p p p p p s p p p p p j s m s s m j j j j j j j j p p p p XXXXXXXXXXXXXXXX",
"XXXXXXXXXXXXXXp p p p j j j p j m m m m m m m m m m m m m V m p z m V m m m m j p p p p j j j j j j j j j p p p p XXXXXXXXXXXXXX",
"XXXXXXXXXXXXXXp p p s p j p j p + O O O O + X + O O O O + X ; m p + X X + + 1 p m m p p p z s j j j j j m p p m p XXXXXXXXXXXXXX",
"XXXXXXXXXXXXp p p p m p j j p p @.5.4.5.2.4.4.4.2.5.5.2.2.7.$.1 D >.<.>.=.O.( Y 1 O p m p p s p j j j j s p p p p p XXXXXXXXXXXX",
"XXXXXXXXXXp s p p m p m p m + %. X^. X X X X X X X X X X`. Xz.O Y L. X X X X XP.n.;.J + m z p p j j j j m p m p l p p XXXXXXXXXX",
"XXXXXXXXXXp m p p p p m p m + #. X X^.^.^.^.^.^.^.^.^.^.E. Xs.O Y L. XE.^.^. X X X XG.&.1 q m p j j j j s p p s p s p XXXXXXXXXX",
"XXXXXXXXl p p l s m p m p p p 0 O.v. X X X X]. X]. X X X^. Xg.+ V 2.F. X].]. X^.^.(.]. Xp.p w j p j j j m p p p p p s l XXXXXXXX",
"XXXXXXp p p p p p p p s s p m s + * M. X^. X]. X X X]. X^. Xg.; m O V c. X^. X]. X X].^. Xk.0 p j j j j s p s m m p s p p XXXXXX",
"XXXXXXp s p s m s m s p m s p p S * t. X^.]. X X X]. X].^. Xg.* m V = E (. X X X X]. X^.Q. X2.+ m p j j m p m s p m p p p XXXXXX",
"XXXXXXp m p p p p p m p p p m p m * y. X^. X X]. X]. X X^. Xg.+ m j j j Z. X^.].]. X X X`. XE.^ 1 m j j s p p p p s p p p XXXXXX",
"XXXXp p p p m p s m p m s p s p V + y. X^. X X X X]. X X(. Xh.* m s p p B. X^. X X X X]. X^. X8.+ m p p z p m p m s m p p p XXXX",
"XXXXp p p p s p p p p s m p m p V + y. X^. X X X X X X].(. Xh.* m p p p B. X X X X].]. X X^. XZ.m p z s p m s p p p p p m p XXXX",
"XXj p m p p m p s m s p p p s m j = t. X^. X]. X^. X X X(. Xg.* m p p p B. X^. X X]. X X X]. XE.~ 2 z s p p p p p s p p p p l XX",
"XXl p s p m s p p p m p m s p p V + t. X^. X]. X X X X X^. Xg.* m z p p B. X].]. X X X]. X X^. X[ * m s s m s m p m p m p p l XX",
"XXl p p s m p m p m p p s m p m m = y. X^. X X X X X]. X`. Xg.* z s p p B. X`. X X X].]. X]. X Xo.* m p j j j j p s m p p s p XX",
"XXp p p p p p s p s m s p p p s m + y. X^. X X].]. X]. X^. Xg.+ m z p p B. X^. X]. X X X X].^. XX.+ m p j j j j p m s p p p p XX",
"l p s p s m s p s p p p s m s p V + y. X^. X X X X]. X X(. Xg.* z s p p B. X`. X]. X X X X X^. X] * m p j j j j p p p p p l p m ",
"m p p m p p m p m p m s p p m p m + y. X^. X].]. X X X].(. Xh.* m s p p B. X^. X X X]. X X^. XE.Q 5 m j j j j j s m s m p p l z ",
"p p s m p p s m p p s m p p s m m + y. X^. X X X]. X X].^. Xg.* m j p p B. X`. X X X]. X X`. XC.z s z s j j j j j j j j s p p p ",
"p z p p m s p p m s p p m s p p m = y. X^. X]. X]. X X].^. Xg.* m j p p B. X^. X]. X X^. X^. X9.O M p z j j j j j j j j m p s p ",
"p l p p p m p m p m p m p m p m m + y. X^. X X X X X X X^. Xg.* m p p V S. X X X]. X X X^. X X/ ; m z p j j j j j j j j j j l p ",
"j j s m p s p s p s p s p s p s m = y. X^. X X]. X].]. X^. Xg.+ m V 5 W ^. X^. X X X^. XQ. Xe.+ m p p m j j j j j j j j j j j s ",
"s p j j j j j j j j j j j j j j V + y. X^. X X X X X^. X(. Xg.; m *   9. X(.]. X X X].(. XN.V w l p j j j j j j j j j j j j j j ",
"j l j j j j j j j j j j j j j j V + y. X^. X].].]. X X X(. Xg.* m  .p. X]. X].].].^.^. XN.P 3 m p p j j j j j j j j j j j j l j ",
"p j p j j j j j j j j j j j j j j + y. X^. X X X X X X X(. Xg.O J G. X(.^.^.(.]. X X^.q.j 5 m p j j j j j j j j j j j j j p p p ",
"j p j j j j j j j j j j j j j j V = t. X^. X]. X X]. X X^. Xj.+ L L. X`. X X X XJ.r./ + p j l s j j j j j j j j j j j j j j p s ",
"V p p l j j j j j j j j j j j j m = y. X^. X X X X X]. X(. Xg.+ G j.m.c.y.6.-.] G + 1 m s p m s j j j j j j j j p m p m j j p V ",
"l p p p j j j j j j j j j j j j m + y. X^. X X].]. X]. X(. Xg.+ m 5 1 + + + + = p m j p m p p p j j j j j j j j p s p s p j p l ",
"XXp s p j j j j j j j j j j j j V + y. X^. X X X X]. X X(. Xg.* z z m m m m V V j j s p p p m p j j j j j j j j s m p p p p p XX",
"XXl s p j j j j j j j j j j j j m + y. X^. X].]. X X X].(. Xh.* m s p l p p p l j j s p m s s p j j j j j j j j p p m p p p l XX",
"XXl p j j j j j j j j j j j j j m + y. X^. X X X X]. X X^. Xg.* z z s z m p p p p p p s m p p p p p p p p p p p s m p m p p p XX",
"XXl p j p j j j j j j j j j j j m = y. X^. X X]. X]. X].^. Xg.* m s z p s p s m s m p m s p s m s m s m s m s m p p p p p p m XX",
"XXXXp j p j j j j j j j j j j j m O y. X^. X X]. X X]. X^. Xg.* m p p z m p m s m s p s m p m s m p p s m p p s s p s p l p XXXX",
"XXXXp p l j j j j j j j j j j j m = y. X^.]. X X]. X X X^. Xg.+ m p m p s p p p p p p m s p p p s p p m s p p m m p m p p p XXXX",
"XXXXXXp p p j j j j j j j j j j V = y. X^. X X X X X].].^. Xg.= m s p z p m m p p s m p p s m p m s m p p s m s s p p m p XXXXXX",
"XXXXXXp s p j j j j j j j j j j m + y. X^. X]. X]. X X X^. Xg.; m s z s p p s p p m s p p m s p p p s p p m p p m p p p p XXXXXX",
"XXXXXXp p s p j j j j j j j p j S X u. X^.]. X X]. X X X`. Xk.X z m z p s p p p p p p p p p p p p p m p p s p p p p p p p XXXXXX",
"XXXXXXXXp p l j j j j j j p j w O Y S. X]. X X]. X X]. X X XU.` 2 * s z p m s m s m s m s m s m s m s p p m s m p p p l XXXXXXXX",
"XXXXXXXXXXp l p p m s m p s p D q.L. X`. X`. X].]. X]. X X]. XQ.V.=.5 z j j j j j j j j j j j j m s m p j j j j p j p XXXXXXXXXX",
"XXXXXXXXXXp p p p p p p p m O ;. X(.^. X X^.].].).].).(.^. X(.^. X(.! 1 m j j j j j j j j j j j p p s p j j j p l s p XXXXXXXXXX",
"XXXXXXXXXXXXp p p m p m p m ; ..E. X X X X X X X X X X X X X X X Xv.S p p s j j j j j j j j j j p p m p j j p l p p XXXXXXXXXXXX",
"XXXXXXXXXXXXXXp p p p s p p m 2 R [ [ [ [ [ [ { [ { { [ [ [ [ | _ m 5 m p j j j j j j j j j j j s m s p j s p p p XXXXXXXXXXXXXX",
"XXXXXXXXXXXXXXp p p p p p p p m 5 + ; * * ; * * = = * * * * * * 1 p p p j j j j j j j j j j j j m p p p s p p p p XXXXXXXXXXXXXX",
"XXXXXXXXXXXXXXXXp p m p s z p p m m m m m z m m m m z m z m z m m p p s j j j j j j j j j j j j s p m s p m p l XXXXXXXXXXXXXXXX",
"XXXXXXXXXXXXXXXXXXl p p p p s m p s z p z s j j l m p m z z s z j j j j j j j j j j j j j j j j m p s p p p l XXXXXXXXXXXXXXXXXX",
"XXXXXXXXXXXXXXXXXXXXp p m p p p p m p z s z j j p p p s z s z s j j j j j j j j j j j j j j j j p p l p p p XXXXXXXXXXXXXXXXXXXX",
"XXXXXXXXXXXXXXXXXXXXXXp p p l p p s j j j j j j s p s p s p s p j j j j j j j j p p s p s m j j p m p p p XXXXXXXXXXXXXXXXXXXXXX",
"XXXXXXXXXXXXXXXXXXXXXXXXXXp s p l s j j j j j j m p m p m p m p j j j j j j j j m s m p p p s p p s p XXXXXXXXXXXXXXXXXXXXXXXXXX",
"XXXXXXXXXXXXXXXXXXXXXXXXXXXXp p s j p p j p s j p p s m p p s m j j j j j j j j p p s p p p p p p p XXXXXXXXXXXXXXXXXXXXXXXXXXXX",
"XXXXXXXXXXXXXXXXXXXXXXXXXXXXXXXXp p p l l p p j m s p p m s p p j j j j j j j j m p p p s m p p XXXXXXXXXXXXXXXXXXXXXXXXXXXXXXXX",
"XXXXXXXXXXXXXXXXXXXXXXXXXXXXXXXXXXp p p p z p p p p p s s m p m m s p m j p p p p p m p p p p XXXXXXXXXXXXXXXXXXXXXXXXXXXXXXXXXX",
"XXXXXXXXXXXXXXXXXXXXXXXXXXXXXXXXXXXXXXXXp p p p p p m s p p p s p p p p j j j s p p p p XXXXXXXXXXXXXXXXXXXXXXXXXXXXXXXXXXXXXXXX",
"XXXXXXXXXXXXXXXXXXXXXXXXXXXXXXXXXXXXXXXXXXXXl l p p p p p p p p p p p p p p p l l l XXXXXXXXXXXXXXXXXXXXXXXXXXXXXXXXXXXXXXXXXXXX",
"XXXXXXXXXXXXXXXXXXXXXXXXXXXXXXXXXXXXXXXXXXXXXXXXXXXXl m m p s p m s p l m l XXXXXXXXXXXXXXXXXXXXXXXXXXXXXXXXXXXXXXXXXXXXXXXXXXXX"
};
