/* XPM */
static char *a514205cce4f4a43f70dfd32d5ce8ad2[] = {
/* columns rows colors chars-per-pixel */
"16 16 81 1 ",
"  c #004817",
". c #004D1E",
"X c #004E1F",
"o c #004F20",
"O c #005021",
"+ c #015122",
"@ c #035123",
"# c #035223",
"$ c #045324",
"% c #055324",
"& c #065426",
"* c #075527",
"= c #085527",
"- c #095629",
"; c #0A5629",
": c #0A572A",
"> c #0B572A",
", c #0C582B",
"< c #0C582C",
"1 c #0D592D",
"2 c #0E592D",
"3 c #0E5A2E",
"4 c #0F5A2E",
"5 c #0F5B2F",
"6 c #105A2E",
"7 c #105A2F",
"8 c #105B2F",
"9 c #115B2F",
"0 c #115B30",
"q c #115C30",
"w c #125C30",
"e c #125C31",
"r c #135D31",
"t c #135D32",
"y c #145D32",
"u c #1E643B",
"i c #1E653B",
"p c #296C45",
"a c #2F704A",
"s c #377651",
"d c #3B7854",
"f c #47815F",
"g c #528868",
"h c #5A8D6F",
"j c #69977C",
"k c #6C9A7F",
"l c #6D9A80",
"z c #719E84",
"x c #729E84",
"c c #739E85",
"v c #7AA38B",
"b c #81A891",
"n c #82A992",
"m c #85AB94",
"M c #95B6A3",
"N c #9FBDAC",
"B c #A3C0AF",
"V c #A4C0B0",
"C c #A5C1B1",
"Z c #A7C3B3",
"A c #A9C4B4",
"S c #AAC4B5",
"D c #AAC5B5",
"F c #ABC5B6",
"G c #ACC6B7",
"H c #AFC8BA",
"J c #BACFC2",
"K c #BED2C6",
"L c #C9DAD0",
"P c #CADBD1",
"I c #D0DED6",
"U c #D1DFD6",
"Y c #D4E1DA",
"T c #E3EBE6",
"R c #E9EFEC",
"E c #E9F0EC",
"W c #ECF1EE",
"Q c #F1F5F3",
"! c #FEFEFE",
"~ c gray100",
"^ c None",
/* pixels */
"^^^^^888888^^^^^",
"^^^8tttwwtt22^^^",
"^^82ooo&%X@w88^^",
"^82iNZHkvVg=888^",
"^8t*M~~Zf~~m%t2^",
"82yXj~~D@T~Ei>88",
"88tox~~D2R~Qp>08",
"82tox~~D>E~L2888",
"t2tox~~Bb~Us*w2w",
"52tox~~Dad,*t222",
"w2tXl~~D >2t28w5",
"^2t@n~~K2t82w88^",
"^t,iJILYh&t2228^",
"^^82,>,>2w282w^^",
"^^^8w22w22288^^^",
"^^^^^5w55t8^^^^^"
};
