/* XPM */
static char *_e835781f1c942a19ea3f7f63be3611b[] = {
/* columns rows colors chars-per-pixel */
"32 32 136 2 ",
"   c #004817",
".  c #004919",
"X  c #004B1A",
"o  c #004E1E",
"O  c #004F1F",
"+  c #004F20",
"@  c #005021",
"#  c #015022",
"$  c #015122",
"%  c #025122",
"&  c #025123",
"*  c #035223",
"=  c #045325",
"-  c #055325",
";  c #055426",
":  c #065426",
">  c #075427",
",  c #085628",
"<  c #095628",
"1  c #095629",
"2  c #0A5629",
"3  c #0A572A",
"4  c #0B572A",
"5  c #0B582B",
"6  c #0C582B",
"7  c #0C582C",
"8  c #0D592C",
"9  c #0E592D",
"0  c #0E5A2D",
"q  c #0E5A2E",
"w  c #0F5A2E",
"e  c #0F5B2E",
"r  c #0F5B2F",
"t  c #105A2E",
"y  c #105B2E",
"u  c #105A2F",
"i  c #105B2F",
"p  c #115B2F",
"a  c #115B30",
"s  c #115C30",
"d  c #125C30",
"f  c #125C31",
"g  c #125D31",
"h  c #135D31",
"j  c #135D32",
"k  c #145D32",
"l  c #145E32",
"z  c #175F35",
"x  c #196137",
"c  c #1A6137",
"v  c #1A6237",
"b  c #1A6238",
"n  c #21663E",
"m  c #256941",
"M  c #286B43",
"N  c #296C45",
"B  c #2C6E47",
"V  c #2C6E48",
"C  c #2D6F48",
"Z  c #2F704A",
"A  c #377651",
"S  c #3B7854",
"D  c #3B7955",
"F  c #3E7A57",
"G  c #437E5B",
"H  c #4E8565",
"J  c #4F8666",
"K  c #508767",
"L  c #518767",
"P  c #528868",
"I  c #54896A",
"U  c #578C6D",
"Y  c #5A8E6F",
"T  c #5C8E70",
"R  c #5C8F71",
"E  c #609174",
"W  c #609275",
"Q  c #619275",
"!  c #619376",
"~  c #629376",
"^  c #639477",
"/  c #6F9C82",
"(  c #709C82",
")  c #749F86",
"_  c #76A087",
"`  c #76A187",
"'  c #76A188",
"]  c #7FA78F",
"[  c #8CB09B",
"{  c #96B6A3",
"}  c #9BBAA8",
"|  c #9FBDAB",
" . c #A1BEAD",
".. c #A2BFAE",
"X. c #A3BFAE",
"o. c #A4C0AF",
"O. c #A8C3B3",
"+. c #ABC5B6",
"@. c #B1C9BB",
"#. c #CCDBD2",
"$. c #CDDBD2",
"%. c #CCDCD2",
"&. c #CEDDD4",
"*. c #CFDED5",
"=. c #D3E1D9",
"-. c #D4E1D9",
";. c #DAE6DF",
":. c #DFE8E3",
">. c #DFE9E3",
",. c #E0EAE4",
"<. c #E1EAE4",
"1. c #EBF1ED",
"2. c #EDF2EF",
"3. c #EDF3F0",
"4. c #EEF3F0",
"5. c #F5F7F6",
"6. c #F5F8F6",
"7. c #F7F9F7",
"8. c #F7F9F8",
"9. c #F8FAF8",
"0. c #F8FAF9",
"q. c #F9FAF9",
"w. c #F9FBFA",
"e. c #FAFBFA",
"r. c #FAFBFB",
"t. c #FAFCFB",
"y. c #FBFCFB",
"u. c #FBFCFC",
"i. c gray99",
"p. c #FDFDFD",
"a. c #FDFEFD",
"s. c #FEFEFE",
"d. c #FFFEFE",
"f. c #FFFEFF",
"g. c gray100",
"h. c None",
/* pixels */
"h.h.h.h.h.h.h.h.h.h.h.h.i i i w w i i i h.h.h.h.h.h.h.h.h.h.h.h.",
"h.h.h.h.h.h.h.h.h.t t w w t w i i w w t w t t h.h.h.h.h.h.h.h.h.",
"h.h.h.h.h.h.h.t w w r r i i i r r i i i i r w w t h.h.h.h.h.h.h.",
"h.h.h.h.h.h.t w i i t r i i i i i i i i i t i i w t h.h.h.h.h.h.",
"h.h.h.h.h.t w s s s s s s s s w s s s a t w i w i r t h.h.h.h.h.",
"h.h.h.h.t w w w = & & > = = @ 5 5 & > 2 s s i w i t r t h.h.h.h.",
"h.h.h.t t s w s G K H H K H P m N H F M 2 @ s i w i i r t h.h.h.",
"h.h.w w s s > D d.d.d.d.d.d.d.P ` d.u.6.%.! > w i w w i w w h.h.",
"h.h.t w w t s w P 3.d.r.u.0.d.R x @.d.d.d.d.} , s t i t r t h.h.",
"h.t w s s w w r @ $.d.y.u.r.d.^   x 3.d.0.r.d./ @ s w i i w t h.",
"h.w w w s w s w w *.d.u.d.r.d.! @ b >.d.u.y.d.-.s w w i t r t h.",
"h.w s t w s w s 5 *.d.u.u.u.d.! + b >.d.u.d.d.6.Z , s i t i w h.",
"t w s w s w s w 5 *.d.u.u.u.d.! + x ,.d.u.d.d.u.A > s i i i w i ",
"s w w s w s w s 5 %.d.u.u.u.d.! + x ,.d.r.d.d.6.B 2 s i i i t i ",
"t w w w s w s w 5 *.d.u.d.r.d.! @ b >.d.u.u.d.-.w w i i i i w i ",
"w s r s w s w s 5 *.d.u.u.u.d.^ . b 4.d.y.r.d.' @ s w i i r i w ",
"w w r w s w s w 5 &.d.u.u.r.d.W 2 { d.u.d.d.+.2 r r s w s w r w ",
"s w s s w s w s 5 *.d.u.d.u.d.H _ d.u.d.>.' 2 w a w w s w s w s ",
"t w s w s w s w 5 &.d.u.u.u.d.R Z / U D s @ t s w w s w w s w t ",
"s w w s w s w s 5 &.d.u.d.r.d.! X & @ = w s s w w a w s s w w s ",
"h.w t t s w s w 5 *.d.u.u.r.d.! @ x s s s t s w w s w s w s w h.",
"h.t r t w a w s 5 *.d.u.d.r.d.! @ s w s t s w s s w s w t w t h.",
"h.t w s a r s r , %.d.u.u.y.d.R @ k t t s w s w w s w s t w t h.",
"h.h.w w w w s 2 s ;.d.0.r.0.d.] O t a w w s w s s w s t r t h.h.",
"h.h.w w s s 2 Z 1.d.d.d.d.d.d.d.=.x w i i i i i w s w i w w h.h.",
"h.h.h.t w s 2 m  .o.o. . .o. .O.[ s w i i i i i r w i r t h.h.h.",
"h.h.h.h.t w r 6 @ @ @ @ @ @ @ @ O w i w i i i i w t r t h.h.h.h.",
"h.h.h.h.h.t w i s k k s s l j j s r w i i i i w i r t h.h.h.h.h.",
"h.h.h.h.h.h.t w i i i i i i i i i i i i i t i i w t h.h.h.h.h.h.",
"h.h.h.h.h.h.h.t w w r i i i i r i i i i i r w w t h.h.h.h.h.h.h.",
"h.h.h.h.h.h.h.h.h.t t t w w w i i t t w w t t h.h.h.h.h.h.h.h.h.",
"h.h.h.h.h.h.h.h.h.h.h.h.i i i w w i i i h.h.h.h.h.h.h.h.h.h.h.h."
};
