/* XPM */
static char *_0f6e11734b2480dc821200df5093424[] = {
/* columns rows colors chars-per-pixel */
"128 128 72 1 ",
"  c #004D1E",
". c #004F20",
"X c #015122",
"o c #0B5327",
"O c #075528",
"+ c #0B5629",
"@ c #0F5A2E",
"# c #105B2F",
"$ c #135D31",
"% c #185F35",
"& c #176035",
"* c #1A6136",
"= c #1D6339",
"- c #22673E",
"; c #23683F",
": c #256A41",
"> c #296C44",
", c #2D6F48",
"< c #2F704A",
"1 c #32724D",
"2 c #377551",
"3 c #397752",
"4 c #3F7C58",
"5 c #407C59",
"6 c #47815F",
"7 c #4B8362",
"8 c #558A6B",
"9 c #5A8E6F",
"0 c #5B8E70",
"q c #5F9173",
"w c #619275",
"e c #66957A",
"r c #69977C",
"t c #69987C",
"y c #6E9B80",
"u c #709C82",
"i c #76A187",
"p c #77A188",
"a c #7CA48C",
"s c #80A78F",
"d c #81A790",
"f c #83A992",
"g c #8AAF9A",
"h c #8EB19C",
"j c #91B39F",
"k c #94B5A2",
"l c #97B8A5",
"z c #9EBCAB",
"x c #A2BEAD",
"c c #A9C4B4",
"v c #AEC7B8",
"b c #AFC8BA",
"n c #B1C9BB",
"m c #B8CEC1",
"M c #BED3C7",
"N c #C2D5CA",
"B c #CBDBD2",
"V c #D0DED6",
"C c #D4E1DA",
"Z c #D9E5DE",
"A c #DCE7E0",
"S c #DEE9E3",
"D c #E2EBE6",
"F c #E6EEE9",
"G c #E8EFEB",
"H c #EBF1ED",
"J c #EFF3F1",
"K c #F2F6F4",
"L c #F5F8F6",
"P c #F7FAF8",
"I c #FEFEFE",
"U c None",
/* pixels */
"UUUUUUUUUUUUUUUUUUUUUUUUUUUUUUUUUUUUUUUUUUUUUUUUUUUUUUUU$@@@#@#####@#@@#UUUUUUUUUUUUUUUUUUUUUUUUUUUUUUUUUUUUUUUUUUUUUUUUUUUUUUUU",
"UUUUUUUUUUUUUUUUUUUUUUUUUUUUUUUUUUUUUUUUUUUUUUUUUU+##@+@@@@#########@###@@@##+UUUUUUUUUUUUUUUUUUUUUUUUUUUUUUUUUUUUUUUUUUUUUUUUUU",
"UUUUUUUUUUUUUUUUUUUUUUUUUUUUUUUUUUUUUUUUUUUUUU@##+##@###$@$@##########@#@@#@@@@@#@UUUUUUUUUUUUUUUUUUUUUUUUUUUUUUUUUUUUUUUUUUUUUU",
"UUUUUUUUUUUUUUUUUUUUUUUUUUUUUUUUUUUUUUUUUUU##+@@########@#@#############@@@#####@@@##UUUUUUUUUUUUUUUUUUUUUUUUUUUUUUUUUUUUUUUUUUU",
"UUUUUUUUUUUUUUUUUUUUUUUUUUUUUUUUUUUUUUUU@@+######@@#@######################@#@@@#####+#+UUUUUUUUUUUUUUUUUUUUUUUUUUUUUUUUUUUUUUUU",
"UUUUUUUUUUUUUUUUUUUUUUUUUUUUUUUUUUUUUU$+#@###@@#########################################@#UUUUUUUUUUUUUUUUUUUUUUUUUUUUUUUUUUUUUU",
"UUUUUUUUUUUUUUUUUUUUUUUUUUUUUUUUUUUU@@@###@@#########################################+####++UUUUUUUUUUUUUUUUUUUUUUUUUUUUUUUUUUUU",
"UUUUUUUUUUUUUUUUUUUUUUUUUUUUUUUUUU@@#@##@####################################################+UUUUUUUUUUUUUUUUUUUUUUUUUUUUUUUUUU",
"UUUUUUUUUUUUUUUUUUUUUUUUUUUUUUUU#@##@@@###################################################@@####UUUUUUUUUUUUUUUUUUUUUUUUUUUUUUUU",
"UUUUUUUUUUUUUUUUUUUUUUUUUUUUUUo@@##@######################################################@#@##+#oUUUUUUUUUUUUUUUUUUUUUUUUUUUUUU",
"UUUUUUUUUUUUUUUUUUUUUUUUUUUUU@###@@##############################################################@@UUUUUUUUUUUUUUUUUUUUUUUUUUUUU",
"UUUUUUUUUUUUUUUUUUUUUUUUUUU+@@##@###############################################################@###+UUUUUUUUUUUUUUUUUUUUUUUUUUU",
"UUUUUUUUUUUUUUUUUUUUUUUUUU#@##@##################################################################@##@#UUUUUUUUUUUUUUUUUUUUUUUUUU",
"UUUUUUUUUUUUUUUUUUUUUUUUU+@#@######################################################################@#@+UUUUUUUUUUUUUUUUUUUUUUUUU",
"UUUUUUUUUUUUUUUUUUUUUUU+@###########################################################################@##@+UUUUUUUUUUUUUUUUUUUUUUU",
"UUUUUUUUUUUUUUUUUUUUUU+##@@##################################@########################################@##+UUUUUUUUUUUUUUUUUUUUUU",
"UUUUUUUUUUUUUUUUUUUUU+################################################################################@###+UUUUUUUUUUUUUUUUUUUUU",
"UUUUUUUUUUUUUUUUUUUU+@#####################################################################################+UUUUUUUUUUUUUUUUUUUU",
"UUUUUUUUUUUUUUUUUUU#@#@####################################################################################@#UUUUUUUUUUUUUUUUUUU",
"UUUUUUUUUUUUUUUUUU@##@#######################################################################################@UUUUUUUUUUUUUUUUUU",
"UUUUUUUUUUUUUUUUU@@##########################################################################################@+UUUUUUUUUUUUUUUUU",
"UUUUUUUUUUUUUUUU+##@###############################################@###########@############################@##+UUUUUUUUUUUUUUUU",
"UUUUUUUUUUUUUUUo##@################################################$@$########@$#############################@##+UUUUUUUUUUUUUUU",
"UUUUUUUUUUUUUU+@#####################+##@@@@@#@@@@#@@@@@#@@@@@####@@@@@@######@$##############################@##+UUUUUUUUUUUUUU",
"UUUUUUUUUUUUUU##@##################$#$$$#$$$$$$$$#$$#$$$$$#$$#@#@##$#$######@@@@###############################@##UUUUUUUUUUUUUU",
"UUUUUUUUUUUUU+#@@###############$@+O+OOO+OOOOOOOOOOOOOOOOOOOO@#@#@+OO@@@@@##$$$@#@#############################@##+UUUUUUUUUUUUU",
"UUUUUUUUUUUU###@###############+X$->>>>>>>>>>>>>>>>>>>>>>>>:>&@#@$::-**$#@oX Xo@#$##@##############################@UUUUUUUUUUUU",
"UUUUUUUUUUUo##################@$fZHJJJJJJJJJJJJJKJJJJJJKJJJGIeX$+=AKHHGSVMcjaq1$OX+#$#@@############################+UUUUUUUUUUU",
"UUUUUUUUUUU@#@################OjIIIIIIIIIIIIIIIIIIIIIIIIIIIIItX&+*GIIIIIIIPIIIKAcy>OX$$@@############################UUUUUUUUUUU",
"UUUUUUUUUU@##################+%SIIIIIIIIIIIIIIIIIIIIIIIIIIIIIrX$+*FIPIIIIIIIIIIIIIJc6OO$#@###########################+UUUUUUUUUU",
"UUUUUUUUUo@#@################@$CIPIIIIIIIIIIIIIIIIIIIIIIIIIIItX$@*GIIIIIIIIIIIIIIIIIIv3X@$@###########################oUUUUUUUUU",
"UUUUUUUUU@#@##################OaIIIPIIIIIIIIIIIIIIIIIIIIIIIIItX$+*HIIIIIIIIIIIIIIIPIIILf@O$@###########################UUUUUUUUU",
"UUUUUUUU###@##################@@iZIIIIIIIIIIIIIIIIIIIIIIIIIIItX$@*CIIIIIIIIIIIIIIIIIIIIIN;O$@#######################@#@#UUUUUUUU",
"UUUUUUUU#####################@#@X&6vIIIIIIIIIIIIIIIIIIIIIIIIItX$##=7zLIIIIIIIIIIIIIIIIIIIZ<O$@#######################@#@UUUUUUUU",
"UUUUUUU+#@####################@#$@XONIIIIIIIIIIIIIIIIIIIIIIIItX$@@@X 5ZIIIIIIIIIIIIIIPIIIID<O$@########################@+UUUUUUU",
"UUUUUUU##########################$& uILIIIIIIIIIIIIIIIIIIIIIItX$###$$ ,DIPIIIIIIIIIIIIIIPIIC=O$@######################@#@UUUUUUU",
"UUUUUU+#@########################@$XqIIIIIIIIIIIIIIIIIIIIIIPIrX#@##@#$ eIIIIIIIIIIIIIIIPIIIInO###########################+UUUUUU",
"UUUUUU+##@#######################@$X0IIIIIIIIIIIIIIIIIIIIIIIIrX$@#####@-HIIIIIIIIIIIIIIIIIIIItX$#######################@#@UUUUUU",
"UUUUU############################@$X0IIIIIIIIIIIIIIIIIIIIIIPItX$########BIIIIIIIIIIIIIIIIIIIID-O#######################@###UUUUU",
"UUUUU##@#########################@$X0IIIIIIIIIIIIIIIIIIIIIIIItX#@######OmIIIIIIIIIIIIIIIIIIIIIgX##########################@UUUUU",
"UUUU+@#@#########################@$X9IIIIIIIIIIIIIIIIIIIIIIIItX$@######OnIIIIIIIIIIIIIIIIIIIIID=+#########################@+UUUU",
"UUUU@############################@$X9IIIIIIIIIIIIIIIIIIIIIIIItX$@######OvIPIIIIIIIIIIIIIIIIIIIIwX$########################@@UUUU",
"UUUU+#@###########################$X9IIIIIIIIIIIIIIIIIIIIIIIItX$@######OvIIIIIIIIIIIIIIIIIIIIIPxO########################@#@UUUU",
"UUU###@##########################@$X0IIIIIIIIIIIIIIIIIIIIIIIItX$#######@nIPIIIIIIIIIIIIIIIIIIIIA$+#######################@#@#UUU",
"UUU##############################@$X0IIIIIIIIIIIIIIIIIIIIIIIItX$#######OvIIIIIIIIIIIIIIIIIIIIIIL3O###########################UUU",
"UUU+#@###########################@$X0IIIIIIIIIIIIIIIIIIIIIIPItX$#######OvIPIIIIIIIIIIIIIIIIIIIII0X$#######################+#+UUU",
"UU@##############################@$X0IIIIIIIIIIIIIIIIIIIIIIPItX$#######OvIIIIIIIIIIIIIIIIIIIIIIIa $##########################@UU",
"UU###@###########################@$X0IIIIIIIIIIIIIIIIIIIIIIIItX$#######onIPIIIIIIIIIIIIIIIIIIIPIfX$#########################@#UU",
"UU@##############################@#X0IIIIIIIIIIIIIIIIIIIIIIIIrX#@######+vIPIIIIIIIIIIIIIIIIIIILIjX$###########################UU",
"UU+###############################$X0IIIIIIIIIIIIIIIIIIIIIIPIrX$@######OvIIIIIIIIIIIIIIIIIIIIILIlX$##########################+UU",
"U+###############################@$X9IIIIIIIIIIIIIIIIIIIIIIPItX$@######OvIIIIIIIIIIIIIIIIIIIIIIIkX############################+U",
"U##############################$#@$X9IIIIIIIIIIIIIIIIIIIIIIIItX#@######OvIPIIIIIIIIIIIIIIIIIIIIIhX&###############$############U",
"U#@###############################$X0IIIIIIIIIIIIIIIIIIIIIIIItX$@######+vIIIIIIIIIIIIIIIIIIIIIIIa.$########################@###U",
"U+#@##############################$X0IIIIIIIIIIIIIIIIIIIIIIIItX$@######OvIPIIIIIIIIIIIIIIIIIIIIIuX$@##########################@U",
"U##@#############################@$X9IIIIIIIIIIIIIIIIIIIIIIIItX$#######+vIPIIIIIIIIIIIIIIIIIIIII8X$@##########################+U",
"U+#################################X9IIIIIIIIIIIIIIIIIIIIIIIItX$@######OvIIIIIIIIIIIIIIIIIIIIIIK<O$@########################@#@U",
"###########################$#####@#X0IIIIIIIIIIIIIIIIIIIIIIIItX$#######+vIPIIIIIIIIIIIIIIIIIIIIZ$@###########################@##",
"#################################@$X9IIIIIIIIIIIIIIIIIIIIIIIItX$#######OvIIIIIIIIIIIIIIIIIIIIPIxO############################@#@",
"#@################################$X9IIIIIIIIIIIIIIIIIIIIIIIItX$@######OvIIIIIIIIIIIIIIIIIIIIIIw.$##############################",
"@#################################$X9IIIIIIIIIIIIIIIIIIIIIIIItX$#######OnIPIIIIIIIIIIIIIIIIIIID-O############################@#@",
"@#@##############################@$X0IIIIIIIIIIIIIIIIIIIIIIPIrX#@###@#@@MIIIIIIIIIIIIIIIIIIIIIkX$##############################@",
"##################################$X0IIIIIIIIIIIIIIIIIIIIIIIIrX$@####@@$ZIPIIIIIIIIIIIIIIIIIIK<O################################",
"@################################@#X0IIIIIIIIIIIIIIIIIIIIIIPItX$@###@$O,KIIIIIIIIIIIIIIIIIIPIhX$################################",
"#################################@$X0IIIIIIIIIIIIIIIIIIIIIIIItX#@####$XtIIIIIIIIIIIIIIIIIIIIC&+#################################",
"#################################@$X9IIIIIIIIIIIIIIIIIIIIIIIItX$##@#$#ONIIIIIIIIIIIIIIPIIIIK4O#@################################",
"#################################@$X9IIIIIIIIIIIIIIIIIIIIIIIItX$@#$#O fIIIIIIIIIIIIIIIIIIIIqX$@#################################",
"##################################$X9IIIIIIIIIIIIIIIIIIIIIIIItX$##XO>kPIIIIIIIIIIIIIIIIIIItX$###################################",
"#################################@$X0IIIIIIIIIIIIIIIIIIIIIIIItX$#$tnHIIIIIIIIIIIIIIIIIIIK0X#####################################",
"##@##############################@$X0IIIIIIIIIIIIIIIIIIIIIIIItX$+*DIIIIIIIIIIIIIIIIIIIIB3X######################################",
"#@###############################@$X0IIIIIIIIIIIIIIIIIIIIIIIItX$@%SIIIIIIIIIIIIIIIIPIJf#O#@@##################################@#",
"@#@##############################@$X0IIIIIIIIIIIIIIIIIIIIIPIItX$+%DIIIIIIIIIIIPIIIIHk>X########################################+",
"#################################@$X0IIIIIIIIIIIIIIIIIIIIIIPItX$@$ZILILIIIIIIIIIKNi:XO$########################################$",
"U+#@#############################@#X0IIIIIIIIIIIIIIIIIIIIIIIIrX$@&FIIIIIIIIHSmhe<+X+##################################$#######+U",
"U##@##############################$X0IIIIIIIIIIIIIIIIIIIIIIPIrX$@$fkgfdie85:$@ XO#$###################################@#####@#@U",
"U@#@#############################@$X9IIIIIIIIIIIIIIIIIIIIIIPItX$@@XXX X  XOO@@$$############################################@#+U",
"U$@##############################@$X9IIIIIIIIIIIIIIIIIIIIIIIItX#@#$$$$$$$$$#@##@###########################################@##$U",
"U@################################$X0IIIIIIIIIIIIIIIIIIIIIIIItX$@###@@@@@@@@@#####################@########################@#@#U",
"U@@###############################$X0IIIIIIIIIIIIIIIIIIIIIIIItX$@#####$@#@$###################################################@U",
"UU+#@############################@$X9IIIIIIIIIIIIIIIIIIIIIIIItX$@############################################################+UU",
"UU@#@##############################X9IIIIIIIIIIIIIIIIIIIIIIIItX$@##########################################################@#@UU",
"UU#@#############################@#X0IIIIIIIIIIIIIIIIIIIIIIIItX$@###########################################################@#UU",
"UU+#@############################@$X9IIIIIIIIIIIIIIIIIIIIIIIItX$############################################################@@UU",
"UUU@##############################$X9IIIIIIIIIIIIIIIIIIIIIIIItX$@#########################################################@#@UUU",
"UUU#@#############################$X9IIIIIIIIIIIIIIIIIIIIIIIItX$@##########################################################@@UUU",
"UUU##############################@$X0IIIIIIIIIIIIIIIIIIIIIIPIrX#@############################################################UUU",
"UUUU+#@###########################$X0IIIIIIIIIIIIIIIIIIIIIIIIrX$###########################################################+UUUU",
"UUUU#############################@#X0IIIIIIIIIIIIIIIIIIIIIIPItX$@###########################################################UUUU",
"UUUU+############################@$X0IIIIIIIIIIIIIIIIIIIIIIIItX#@#######################################################@##+UUUU",
"UUUUU@############################$X8IIIIIIIIIIIIIIIIIIIIIIIItX$@#######################################################@##UUUUU",
"UUUUU#@###########################$X9IIIIIIIIIIIIIIIIIIIIIIIItX$#######################################################@#@#UUUUU",
"UUUUUU+#@########################@$X9IIIIIIIIIIIIIIIIIIIIIIIItX$@######################################################@#+UUUUUU",
"UUUUUU@#@########################@$X0IIIIIIIIIIIIIIIIIIIIIIIItX$@######################################################@@@UUUUUU",
"UUUUUUU##@#######################@$XqIIIIIIIIIIIIIIIIIIIIIIIIyX$@#####################################################@#@UUUUUUU",
"UUUUUUU+@#@#####################@#$XtIIIIIIIIIIIIIIIIIIIIIILId $##@##################################################@##+UUUUUUU",
"UUUUUUUU########################$$# kIIIIIIIIIIIIIIIIIIIIIIIIBoo#$##@################################################@##UUUUUUUU",
"UUUUUUUU@@#@###################$+.O7KIIIIIIIIIIIIIIIIIIIIIIIIIx>#XO##@##################################################UUUUUUUU",
"UUUUUUUUU######################O:pNPIIIIIIIIIIIIIIIIIIIIIIIIIIIKNj7O##@###############################################@UUUUUUUUU",
"UUUUUUUUUo##################@#O5FIIIIIIIIIIIIIIIIIIIIIIIIIIIIIPIIIIgO##############@###############################@##oUUUUUUUUU",
"UUUUUUUUUU+###################OmIPPIIIIIIIIIIIIIIIIIIIIIIIIIIIIIIIIK1O###############################################+UUUUUUUUUU",
"UUUUUUUUUUU##+###############+*DIIIIIIIPIIIIIIIIIIIIIIIIPIIIIPIIIIII8X$@##########################################@##UUUUUUUUUUU",
"UUUUUUUUUUU+@#################+NIIIPPIPIPPIPPIIILIIILIPPIPIIPIPPLIIH,O$##########################################@#@+UUUUUUUUUUU",
"UUUUUUUUUUUU#@###############$O5SIIIIIIIIIIIIIIIIIIIIIIIIIIIIIIIIIH0X###############################################UUUUUUUUUUUU",
"UUUUUUUUUUUUU+#################O%wdddddddddfddddddfdfddddffdddffaw-X###########################################@@#+UUUUUUUUUUUUU",
"UUUUUUUUUUUUUU##################@.   X  . .   .        .     . . XO$@##########################################@#@UUUUUUUUUUUUUU",
"UUUUUUUUUUUUUUo##################$$$$%$%%$$$$$$$$$%$$$%$$%$$%$$$$$#################$@@########################@##oUUUUUUUUUUUUUU",
"UUUUUUUUUUUUUUU+@#@#############@@@#@@@@@@@@######@@@@@@@@@@@@@@####################@$#######################@##+UUUUUUUUUUUUUUU",
"UUUUUUUUUUUUUUUU+##@################@#######################################################################@##+UUUUUUUUUUUUUUUU",
"UUUUUUUUUUUUUUUUU+@##########################################################################################@@UUUUUUUUUUUUUUUUU",
"UUUUUUUUUUUUUUUUUU##########################################################################################+@UUUUUUUUUUUUUUUUUU",
"UUUUUUUUUUUUUUUUUUU+#########################################################################################UUUUUUUUUUUUUUUUUUU",
"UUUUUUUUUUUUUUUUUUUU+##@####################################################################################UUUUUUUUUUUUUUUUUUUU",
"UUUUUUUUUUUUUUUUUUUUU+@#@################################################################################++UUUUUUUUUUUUUUUUUUUUU",
"UUUUUUUUUUUUUUUUUUUUUU+##################################################################################@UUUUUUUUUUUUUUUUUUUUUU",
"UUUUUUUUUUUUUUUUUUUUUUU+################################################################################oUUUUUUUUUUUUUUUUUUUUUUU",
"UUUUUUUUUUUUUUUUUUUUUUUUU+############################################################################+UUUUUUUUUUUUUUUUUUUUUUUUU",
"UUUUUUUUUUUUUUUUUUUUUUUUUU#######################################################################@##@#UUUUUUUUUUUUUUUUUUUUUUUUUU",
"UUUUUUUUUUUUUUUUUUUUUUUUUUU+@@#################################################################@@#@#+UUUUUUUUUUUUUUUUUUUUUUUUUUU",
"UUUUUUUUUUUUUUUUUUUUUUUUUUUUU@@##############################################################@@##@@UUUUUUUUUUUUUUUUUUUUUUUUUUUUU",
"UUUUUUUUUUUUUUUUUUUUUUUUUUUUUUo@##@@#@######################################################@##@@oUUUUUUUUUUUUUUUUUUUUUUUUUUUUUU",
"UUUUUUUUUUUUUUUUUUUUUUUUUUUUUUUU+@###@###################################################@#@#@##UUUUUUUUUUUUUUUUUUUUUUUUUUUUUUUU",
"UUUUUUUUUUUUUUUUUUUUUUUUUUUUUUUUUU+#####@###############################################@@##@+UUUUUUUUUUUUUUUUUUUUUUUUUUUUUUUUUU",
"UUUUUUUUUUUUUUUUUUUUUUUUUUUUUUUUUUUU+@####@#########################################@@###@@@UUUUUUUUUUUUUUUUUUUUUUUUUUUUUUUUUUUU",
"UUUUUUUUUUUUUUUUUUUUUUUUUUUUUUUUUUUUUU###@##############################################@#UUUUUUUUUUUUUUUUUUUUUUUUUUUUUUUUUUUUUU",
"UUUUUUUUUUUUUUUUUUUUUUUUUUUUUUUUUUUUUUUU+@+#@####@@#########################@#@######+@+UUUUUUUUUUUUUUUUUUUUUUUUUUUUUUUUUUUUUUUU",
"UUUUUUUUUUUUUUUUUUUUUUUUUUUUUUUUUUUUUUUUUUU##+#######@@@################@@@#######+##UUUUUUUUUUUUUUUUUUUUUUUUUUUUUUUUUUUUUUUUUUU",
"UUUUUUUUUUUUUUUUUUUUUUUUUUUUUUUUUUUUUUUUUUUUUU@#@+#@@####@##########@#@####@@@+@#@UUUUUUUUUUUUUUUUUUUUUUUUUUUUUUUUUUUUUUUUUUUUUU",
"UUUUUUUUUUUUUUUUUUUUUUUUUUUUUUUUUUUUUUUUUUUUUUUUUU+##@@+##@##########@##+@@##@UUUUUUUUUUUUUUUUUUUUUUUUUUUUUUUUUUUUUUUUUUUUUUUUUU",
"UUUUUUUUUUUUUUUUUUUUUUUUUUUUUUUUUUUUUUUUUUUUUUUUUUUUUUUU#@@@######@##@@#UUUUUUUUUUUUUUUUUUUUUUUUUUUUUUUUUUUUUUUUUUUUUUUUUUUUUUUU"
};
